<?xml version="1.0" standalone="no"?>
<!DOCTYPE svg PUBLIC "-//W3C//DTD SVG 20010904//EN"
 "http://www.w3.org/TR/2001/REC-SVG-20010904/DTD/svg10.dtd">
<svg version="1.0" xmlns="http://www.w3.org/2000/svg"
 width="156.000000pt" height="153.000000pt" viewBox="0 0 156.000000 153.000000"
 preserveAspectRatio="xMidYMid meet">

<g transform="translate(0.000000,153.000000) scale(0.100000,-0.100000)"
fill="#000000" stroke="none">
<path d="M658 1136 c-119 -33 -228 -152 -228 -249 l0 -37 -47 0 c-94 0 -166
-68 -166 -157 0 -73 59 -132 154 -152 75 -16 239 -15 239 3 0 10 -27 15 -112
19 -111 5 -163 17 -204 47 -105 76 -5 238 126 204 l40 -11 0 51 c0 182 215
311 385 232 51 -23 108 -78 120 -115 7 -25 13 -25 39 -6 40 30 117 13 153 -35
20 -26 23 -70 9 -105 -14 -33 -14 -33 16 -39 38 -7 83 -56 92 -97 12 -61 -45
-129 -108 -129 -16 0 -26 -6 -26 -15 0 -22 58 -19 97 5 47 28 67 65 66 121 -1
57 -31 112 -73 134 -25 13 -28 19 -23 49 7 45 -26 115 -64 137 -38 22 -84 30
-119 20 -25 -6 -34 -1 -80 45 -75 75 -189 107 -286 80z"/>
<path d="M675 780 c-88 -33 -164 -61 -169 -63 -7 -2 52 -30 280 -133 l51 -22
106 48 106 49 4 -87 3 -87 2 93 c1 51 6 92 12 92 5 0 11 -44 13 -97 l3 -98 4
105 4 105 6 -90 6 -90 2 91 c2 90 2 90 33 105 l30 14 -162 60 c-89 33 -165 61
-168 62 -3 1 -78 -25 -166 -57z m185 -55 c-7 -8 -18 -15 -25 -15 -7 0 -18 7
-25 15 -11 13 -7 15 25 15 32 0 36 -2 25 -15z"/>
<path d="M650 570 c0 -49 19 -63 113 -85 76 -18 150 -10 216 22 32 16 36 23
39 62 3 33 0 42 -10 38 -7 -3 -49 -21 -93 -41 l-81 -37 -88 41 c-48 22 -90 40
-92 40 -2 0 -4 -18 -4 -40z"/>
</g>
</svg>
